<svg xmlns="http://www.w3.org/2000/svg">

    <symbol id="phone" viewBox="0 0 18 18">
        <path d="M17.5101 13.2102L14.9981 10.6982C14.101 9.80111 12.5759 10.16 12.217 11.3262C11.9479 12.1337 11.0508 12.5822 10.2434 12.4028C8.4491 11.9542 6.02686 9.62168 5.5783 7.73772C5.30916 6.93027 5.84744 6.03314 6.65485 5.76404C7.82112 5.40519 8.17997 3.88007 7.28284 2.98295L4.77089 0.470991C4.05318 -0.156997 2.97663 -0.156997 2.34864 0.470991L0.644104 2.17553C-1.06044 3.96978 0.82353 8.72455 5.04002 12.941C9.25652 17.1575 14.0113 19.1313 15.8055 17.337L17.5101 15.6324C18.1381 14.9147 18.1381 13.8382 17.5101 13.2102Z" fill="#026977" />
    </symbol>
    <symbol id="user" viewBox="0 0 20 20">
        <path d="M10 0C7.09223 0 4.72656 2.36566 4.72656 5.27344C4.72656 8.18121 7.09223 10.5469 10 10.5469C12.9078 10.5469 15.2734 8.18121 15.2734 5.27344C15.2734 2.36566 12.9078 0 10 0Z" fill="#026977" />
        <path d="M16.5612 14.1535C15.1174 12.6876 13.2035 11.8802 11.1719 11.8802H8.82812C6.79656 11.8802 4.88258 12.6876 3.43883 14.1535C2.00215 15.6122 1.21094 17.5378 1.21094 19.5756C1.21094 19.8992 1.47328 20.1615 1.79688 20.1615H18.2031C18.5267 20.1615 18.7891 19.8992 18.7891 19.5756C18.7891 17.5378 17.9979 15.6122 16.5612 14.1535Z" fill="#026977" />
    </symbol>
    <symbol id="electric" viewBox="0 0 85 85">
        <path d="M51.7969 70.3906H61.0938C62.1495 70.3875 63.1611 69.9667 63.9076 69.2201C64.6542 68.4736 65.075 67.462 65.0781 66.4062V55.5953C66.2156 55.3016 67.2237 54.6391 67.9446 53.7116C68.6656 52.784 69.0587 51.6436 69.0625 50.4688V47.7461C72.6899 47.4116 76.0618 45.7354 78.5183 43.0456C80.9748 40.3557 82.339 36.8459 82.3438 33.2031V22.5781C82.3406 21.5224 81.9198 20.5108 81.1733 19.7642C80.4267 19.0177 79.4151 18.5969 78.3594 18.5938H77.0312V7.96875C77.0312 6.55979 76.4715 5.20853 75.4753 4.21225C74.479 3.21596 73.1277 2.65625 71.7188 2.65625C70.3098 2.65625 68.9585 3.21596 67.9622 4.21225C66.966 5.20853 66.4062 6.55979 66.4062 7.96875V18.5938H61.0938V7.96875C61.0938 6.55979 60.534 5.20853 59.5378 4.21225C58.5415 3.21596 57.1902 2.65625 55.7812 2.65625C54.3723 2.65625 53.021 3.21596 52.0247 4.21225C51.0285 5.20853 50.4688 6.55979 50.4688 7.96875V18.5938H49.1406C48.0849 18.5969 47.0733 19.0177 46.3267 19.7642C45.5802 20.5108 45.1594 21.5224 45.1562 22.5781V33.2031C45.161 36.8459 46.5252 40.3557 48.9817 43.0456C51.4382 45.7354 54.8101 47.4116 58.4375 47.7461V50.4688C58.4413 51.6436 58.8344 52.784 59.5554 53.7116C60.2763 54.6391 61.2844 55.3016 62.4219 55.5953V66.4062C62.4219 66.7585 62.2819 67.0963 62.0329 67.3454C61.7838 67.5945 61.446 67.7344 61.0938 67.7344H51.7969C51.1903 67.7346 50.5919 67.8734 50.0472 68.1404C49.5026 68.4074 49.0262 68.7953 48.6546 69.2747C48.2829 69.754 48.0258 70.312 47.9028 70.9059C47.7799 71.4999 47.7944 72.1141 47.9453 72.7016C48.1805 73.5766 48.702 74.3477 49.4265 74.8917C50.1511 75.4357 51.0371 75.7214 51.943 75.7031H78.3594C78.7116 75.7031 79.0494 75.843 79.2985 76.0921C79.5476 76.3412 79.6875 76.679 79.6875 77.0312V78.3594C79.6875 78.7116 79.5476 79.0494 79.2985 79.2985C79.0494 79.5476 78.7116 79.6875 78.3594 79.6875H30.5469C28.0821 79.6847 25.719 78.7043 23.9761 76.9614C22.2332 75.2185 21.2528 72.8554 21.25 70.3906V45.1562H33.2031C34.2589 45.1531 35.2705 44.7323 36.017 43.9858C36.7636 43.2392 37.1843 42.2276 37.1875 41.1719V6.64062C37.1843 5.58487 36.7636 4.57326 36.017 3.82673C35.2705 3.0802 34.2589 2.6594 33.2031 2.65625H6.64062C5.58487 2.6594 4.57326 3.0802 3.82673 3.82673C3.0802 4.57326 2.6594 5.58487 2.65625 6.64062V41.1719C2.6594 42.2276 3.0802 43.2392 3.82673 43.9858C4.57326 44.7323 5.58487 45.1531 6.64062 45.1562H18.5938V70.3906C18.5987 73.5593 19.8596 76.5967 22.1002 78.8373C24.3408 81.0779 27.3782 82.3388 30.5469 82.3438H78.3594C79.4151 82.3406 80.4267 81.9198 81.1733 81.1733C81.9198 80.4267 82.3406 79.4151 82.3438 78.3594V77.0312C82.3406 75.9755 81.9198 74.9639 81.1733 74.2174C80.4267 73.4708 79.4151 73.05 78.3594 73.0469H51.943C51.6285 73.0574 51.319 72.9662 51.0606 72.7867C50.8021 72.6073 50.6085 72.3491 50.5086 72.0508C50.4478 71.8246 50.4503 71.586 50.5158 71.3612C50.5814 71.1363 50.7076 70.9338 50.8805 70.7758C50.9981 70.6515 51.1403 70.553 51.2981 70.4867C51.4559 70.4204 51.6258 70.3877 51.7969 70.3906ZM69.0625 7.96875C69.0625 7.26427 69.3424 6.58864 69.8405 6.0905C70.3386 5.59235 71.0143 5.3125 71.7188 5.3125C72.4232 5.3125 73.0989 5.59235 73.597 6.0905C74.0951 6.58864 74.375 7.26427 74.375 7.96875V22.5781H69.0625V7.96875ZM53.125 7.96875C53.125 7.26427 53.4049 6.58864 53.903 6.0905C54.4011 5.59235 55.0768 5.3125 55.7812 5.3125C56.4857 5.3125 57.1614 5.59235 57.6595 6.0905C58.1576 6.58864 58.4375 7.26427 58.4375 7.96875V22.5781H53.125V7.96875ZM58.4508 45.0766C55.5274 44.753 52.8259 43.363 50.8631 41.1724C48.9004 38.9818 47.8143 36.1444 47.8125 33.2031V22.5781C47.8125 22.2259 47.9524 21.8881 48.2015 21.639C48.4506 21.3899 48.7884 21.25 49.1406 21.25H50.4688V23.9062C50.4688 24.2585 50.6087 24.5963 50.8577 24.8454C51.1068 25.0944 51.4446 25.2344 51.7969 25.2344H59.7656C60.1179 25.2344 60.4557 25.0944 60.7048 24.8454C60.9538 24.5963 61.0938 24.2585 61.0938 23.9062V21.25H66.4062V23.9062C66.4062 24.2585 66.5462 24.5963 66.7952 24.8454C67.0443 25.0944 67.3821 25.2344 67.7344 25.2344H75.7031C76.0554 25.2344 76.3932 25.0944 76.6423 24.8454C76.8913 24.5963 77.0312 24.2585 77.0312 23.9062V21.25H78.3594C78.7116 21.25 79.0494 21.3899 79.2985 21.639C79.5476 21.8881 79.6875 22.2259 79.6875 22.5781V33.2031C79.6857 36.1444 78.5996 38.9818 76.6369 41.1724C74.6741 43.363 71.9726 44.753 69.0492 45.0766C69.0492 43.6711 68.4909 42.3232 67.4971 41.3294C66.5033 40.3357 65.1554 39.7773 63.75 39.7773C62.3446 39.7773 60.9967 40.3357 60.0029 41.3294C59.0091 42.3232 58.4508 43.6711 58.4508 45.0766ZM61.0938 50.4688V45.1562C61.0938 44.4518 61.3736 43.7761 61.8717 43.278C62.3699 42.7799 63.0455 42.5 63.75 42.5C64.4545 42.5 65.1301 42.7799 65.6283 43.278C66.1264 43.7761 66.4062 44.4518 66.4062 45.1562V50.4688C66.4062 51.1732 66.1264 51.8489 65.6283 52.347C65.1301 52.8451 64.4545 53.125 63.75 53.125C63.0455 53.125 62.3699 52.8451 61.8717 52.347C61.3736 51.8489 61.0938 51.1732 61.0938 50.4688ZM6.64062 42.5C6.28838 42.5 5.95057 42.3601 5.7015 42.111C5.45243 41.8619 5.3125 41.5241 5.3125 41.1719V6.64062C5.3125 6.28838 5.45243 5.95057 5.7015 5.7015C5.95057 5.45243 6.28838 5.3125 6.64062 5.3125H33.2031C33.5554 5.3125 33.8932 5.45243 34.1423 5.7015C34.3913 5.95057 34.5312 6.28838 34.5312 6.64062V41.1719C34.5312 41.5241 34.3913 41.8619 34.1423 42.111C33.8932 42.3601 33.5554 42.5 33.2031 42.5H6.64062Z" fill="#026977"/>
<path d="M65.0781 46.4844H62.4219V49.1406H65.0781V46.4844Z" fill="#026977"/>
<path d="M29.0195 20.5461C28.8999 20.3547 28.7335 20.1969 28.536 20.0877C28.3384 19.9785 28.1163 19.9214 27.8906 19.9219H21.25V10.625C21.2491 10.3266 21.1476 10.0372 20.9621 9.80349C20.7766 9.56977 20.5178 9.40535 20.2274 9.33671C19.9378 9.26475 19.6324 9.29402 19.3618 9.41965C19.0912 9.54529 18.8717 9.75973 18.7399 10.0273L10.7711 25.9648C10.6692 26.167 10.6207 26.3919 10.6302 26.6181C10.6397 26.8443 10.7068 27.0643 10.8252 27.2573C10.9437 27.4502 11.1095 27.6097 11.3069 27.7205C11.5043 27.8314 11.7267 27.8899 11.9531 27.8906H18.5938V37.1875C18.5947 37.4859 18.6961 37.7753 18.8817 38.009C19.0672 38.2427 19.326 38.4071 19.6164 38.4758C19.7161 38.5021 19.8188 38.5155 19.9219 38.5156C20.1671 38.5149 20.4074 38.4462 20.616 38.3173C20.8247 38.1884 20.9935 38.0042 21.1039 37.7852L29.0727 21.8477C29.1755 21.6442 29.2246 21.4178 29.2153 21.19C29.206 20.9622 29.1386 20.7405 29.0195 20.5461ZM21.25 31.5562V26.5625C21.25 26.2103 21.1101 25.8724 20.861 25.6234C20.6119 25.3743 20.2741 25.2344 19.9219 25.2344H14.1047L18.5938 16.2562V21.25C18.5938 21.6022 18.7337 21.9401 18.9828 22.1891C19.2318 22.4382 19.5696 22.5781 19.9219 22.5781H25.7391L21.25 31.5562Z" fill="#026977"/>
    </symbol>
    <symbol id="camera" viewBox="0 0 93 93">
        <path d="M70.6209 57.0895C70.3292 57.0895 70.0389 57.0507 69.7575 56.9738L8.43656 40.4362C7.59326 40.2075 6.87507 39.6537 6.43946 38.8963C6.00385 38.1389 5.88638 37.2396 6.11282 36.3957L9.00336 25.6831C9.04622 25.5237 9.12007 25.3742 9.22072 25.2433C9.32136 25.1124 9.44681 25.0026 9.5899 24.9202C9.73299 24.8378 9.89091 24.7844 10.0546 24.7631C10.2184 24.7417 10.3847 24.7529 10.5441 24.7958L75.8012 42.3904C76.123 42.477 76.3972 42.6878 76.5636 42.9765C76.73 43.2652 76.7749 43.6082 76.6885 43.93L73.798 54.6451C73.6091 55.344 73.1957 55.9614 72.6213 56.4022C72.047 56.843 71.3436 57.0828 70.6196 57.0844L70.6209 57.0895ZM11.1021 27.5507L8.5459 37.0505C8.49202 37.2508 8.51969 37.4643 8.62286 37.6442C8.72602 37.8242 8.89628 37.9559 9.09636 38.0106L70.4123 54.5433C70.6125 54.5957 70.8254 54.5672 71.0048 54.464C71.1843 54.3607 71.3159 54.191 71.3712 53.9916L73.9337 44.4905L11.1021 27.5507Z" fill="#026977"/>
<path d="M78.4367 54.723C78.1481 54.723 77.8607 54.685 77.5821 54.6099L72.8517 53.3343C72.6923 53.2913 72.543 53.2173 72.4122 53.1166C72.2815 53.0159 72.1718 52.8905 72.0895 52.7474C72.0073 52.6043 71.954 52.4464 71.9327 52.2828C71.9115 52.1191 71.9226 51.9528 71.9656 51.7935L74.2605 43.2815C74.2968 43.147 74.3554 43.0195 74.4339 42.9044L83.6346 29.3227C83.7822 29.107 83.9933 28.9427 84.2386 28.8526C84.4839 28.7625 84.7512 28.7511 85.0032 28.82L88.35 29.7223C88.8191 29.849 89.2544 30.0778 89.6248 30.3923C89.9951 30.7069 90.2913 31.0994 90.4923 31.5418C90.6932 31.9842 90.7938 32.4656 90.7869 32.9515C90.7801 33.4373 90.6659 33.9157 90.4525 34.3522L81.4039 52.8806C81.1309 53.4343 80.7082 53.9004 80.1838 54.2261C79.6593 54.5518 79.054 54.7239 78.4367 54.723ZM74.7192 51.2355L78.2381 52.1831C78.4134 52.2295 78.5993 52.2139 78.7644 52.139C78.9295 52.0641 79.0637 51.9345 79.1442 51.7721L88.1929 33.2425C88.2438 33.1387 88.2709 33.0249 88.2725 32.9094C88.274 32.7938 88.2499 32.6793 88.2018 32.5742C88.1537 32.4691 88.0828 32.376 87.9943 32.3016C87.9059 32.2272 87.802 32.1734 87.6902 32.1441L85.2081 31.473L76.6332 44.1386L74.7192 51.2355Z" fill="#026977"/>
<path d="M75.4745 44.8662C75.3638 44.8663 75.2535 44.8519 75.1465 44.8235L6.58915 26.3328C5.74632 26.104 5.02886 25.5498 4.59452 24.7921C4.16018 24.0345 4.04451 23.1353 4.27295 22.2924L8.6163 6.15812C8.72894 5.74006 8.92287 5.3483 9.18699 5.00522C9.45112 4.66215 9.78026 4.37449 10.1556 4.15868C10.531 3.94287 10.9452 3.80316 11.3746 3.74751C11.8039 3.69187 12.2401 3.72139 12.658 3.83438L85.3689 23.4398C85.8756 23.5764 86.3422 23.8321 86.7301 24.1855C87.1179 24.5389 87.4157 24.9799 87.5986 25.4717C87.7816 25.9635 87.8444 26.4919 87.7818 27.0128C87.7193 27.5338 87.5332 28.0323 87.239 28.4668L76.5151 44.3019C76.4013 44.4742 76.2469 44.6159 76.0654 44.7143C75.8839 44.8127 75.681 44.8649 75.4745 44.8662ZM11.7984 6.23479C11.6267 6.23493 11.4598 6.29163 11.3235 6.39612C11.1872 6.50062 11.0891 6.64708 11.0444 6.81289L6.69347 22.9471C6.66648 23.0463 6.65935 23.1499 6.6725 23.2518C6.68565 23.3538 6.7188 23.4521 6.77007 23.5412C6.82134 23.6303 6.8897 23.7084 6.97123 23.771C7.05277 23.8336 7.14586 23.8795 7.24518 23.906L74.9366 42.1617L85.1578 27.0655C85.2275 26.9623 85.2716 26.844 85.2864 26.7203C85.3013 26.5967 85.2864 26.4713 85.243 26.3545C85.1996 26.2378 85.129 26.133 85.037 26.0491C84.945 25.9651 84.8344 25.9042 84.7142 25.8716L12.0033 6.26118C11.9364 6.24376 11.8675 6.23489 11.7984 6.23479Z" fill="#026977"/>
<path d="M45.663 57.3747C45.5522 57.3748 45.442 57.3605 45.335 57.332L30.2325 53.2588C29.9185 53.1741 29.6495 52.971 29.4822 52.6921C29.3149 52.4132 29.2622 52.0802 29.3352 51.7633L30.8433 45.2282C30.8814 45.0636 30.9522 44.9084 31.0516 44.7719C31.151 44.6353 31.2769 44.5202 31.4218 44.4334C31.5666 44.3466 31.7275 44.2899 31.8948 44.2667C32.0621 44.2434 32.2323 44.2541 32.3954 44.2982L47.5381 48.3826C47.8543 48.4678 48.1248 48.6731 48.292 48.9548C48.4591 49.2365 48.5096 49.5723 48.4329 49.8907L46.8845 56.4171C46.8192 56.6923 46.663 56.9374 46.441 57.1128C46.2191 57.2881 45.9446 57.3835 45.6617 57.3835L45.663 57.3747ZM32.0573 51.15L44.7405 54.5671L45.7082 50.4877L33.0024 47.0605L32.0573 51.15Z" fill="#026977"/>
<path d="M34.0053 75.2797H15.4304C15.0971 75.2797 14.7774 75.1473 14.5417 74.9116C14.3061 74.6759 14.1737 74.3563 14.1737 74.023V68.9809C14.1737 68.6475 14.3061 68.3279 14.5417 68.0922C14.7774 67.8565 15.0971 67.7241 15.4304 67.7241H34.0053C34.0598 67.7238 34.1121 67.7019 34.1507 67.6634C34.1892 67.6248 34.2111 67.5726 34.2114 67.518V53.3694C34.2113 53.1765 34.2557 52.9861 34.341 52.8131C34.4263 52.64 34.5504 52.489 34.7035 52.3716C34.8566 52.2542 35.0347 52.1736 35.224 52.1361C35.4132 52.0986 35.6086 52.1052 35.7949 52.1554L40.8345 53.5152C41.101 53.5873 41.3364 53.7451 41.5043 53.9643C41.6721 54.1835 41.7631 54.4519 41.7632 54.728V67.518C41.7619 69.5755 40.9442 71.5484 39.4897 73.0036C38.0352 74.4588 36.0628 75.2774 34.0053 75.2797ZM16.6872 72.7662H34.0053C35.3957 72.7645 36.7287 72.2115 37.7118 71.2283C38.695 70.2451 39.2481 68.9122 39.2497 67.5218V55.6907L36.7249 55.0095V67.518C36.7239 68.239 36.4371 68.9301 35.9272 69.44C35.4174 69.9498 34.7263 70.2366 34.0053 70.2376H16.6872V72.7662Z" fill="#026977"/>
<path d="M7.80192 86.2035C7.46861 86.2035 7.14894 86.0711 6.91326 85.8354C6.67757 85.5997 6.54516 85.28 6.54516 84.9467V58.0521C6.54516 57.7188 6.67757 57.3992 6.91326 57.1635C7.14894 56.9278 7.46861 56.7954 7.80192 56.7954C10.1577 56.7984 12.4162 57.7356 14.0819 59.4016C15.7476 61.0675 16.6845 63.3261 16.6872 65.6819V77.317C16.6845 79.6728 15.7476 81.9314 14.0819 83.5973C12.4162 85.2632 10.1577 86.2005 7.80192 86.2035ZM9.05867 59.4346V83.5643C10.5008 83.2722 11.7976 82.4908 12.7297 81.3524C13.6619 80.2139 14.1719 78.7883 14.1737 77.317V65.6832C14.1718 64.2117 13.6616 62.7861 12.7296 61.6475C11.7975 60.5088 10.5008 59.7271 9.05867 59.4346Z" fill="#026977"/>
    </symbol>
    <symbol id="sink" viewBox="0 0 90 90">
        <path d="M64.1434 50.192H59.7464C59.371 50.192 59.011 50.3072 58.7456 50.5121C58.4801 50.7171 58.331 50.9952 58.331 51.2851C58.331 51.575 58.4801 51.853 58.7456 52.058C59.011 52.263 59.371 52.3782 59.7464 52.3782H64.1434C64.5188 52.3782 64.8788 52.263 65.1443 52.058C65.4097 51.853 65.5588 51.575 65.5588 51.2851C65.5588 50.9952 65.4097 50.7171 65.1443 50.5121C64.8788 50.3072 64.5188 50.192 64.1434 50.192Z" fill="#026977"/>
<path d="M85.4539 45.3673H49.3067V13.4979C49.3184 11.8053 50.1973 10.1851 51.7512 8.99137C53.3052 7.79769 55.4078 7.12761 57.5995 7.12761C59.7913 7.12761 61.8939 7.79769 63.4479 8.99137C65.0018 10.1851 65.8807 11.8053 65.8924 13.4979V20.0929H65.1898C64.8145 20.0929 64.4544 20.2081 64.189 20.4131C63.9235 20.6181 63.7744 20.8961 63.7744 21.186V25.194C63.7744 25.4839 63.9235 25.7619 64.189 25.9669C64.4544 26.1719 64.8145 26.2871 65.1898 26.2871H75.7805C76.1559 26.2871 76.5159 26.1719 76.7813 25.9669C77.0468 25.7619 77.1959 25.4839 77.1959 25.194V21.186C77.1959 20.8961 77.0468 20.6181 76.7813 20.4131C76.5159 20.2081 76.1559 20.0929 75.7805 20.0929H75.0777V13.4979C75.0777 11.7253 74.6256 9.97012 73.7473 8.33248C72.8689 6.69484 71.5815 5.20684 69.9585 3.95344C68.3355 2.70005 66.4088 1.7058 64.2882 1.02747C62.1677 0.349133 59.8949 0 57.5997 0C55.3044 0 53.0316 0.349133 50.9111 1.02747C48.7906 1.7058 46.8638 2.70005 45.2408 3.95344C43.6178 5.20684 42.3304 6.69484 41.4521 8.33248C40.5737 9.97012 40.1216 11.7253 40.1216 13.4979V30.8548H33.0639C32.6885 30.8548 32.3285 30.9699 32.063 31.1749C31.7976 31.3799 31.6485 31.658 31.6485 31.9479V32.8941H26.2187V29.4941C26.2187 29.2042 26.0696 28.9261 25.8041 28.7211C25.5387 28.5161 25.1787 28.401 24.8033 28.401C24.4279 28.401 24.0679 28.5161 23.8024 28.7211C23.537 28.9261 23.3878 29.2042 23.3878 29.4941V42.9426C23.3878 43.2325 23.537 43.5105 23.8024 43.7155C24.0679 43.9205 24.4279 44.0357 24.8033 44.0357C25.1787 44.0357 25.5387 43.9205 25.8041 43.7155C26.0696 43.5105 26.2187 43.2325 26.2187 42.9426V39.6604H31.6482V40.489C31.6482 40.7789 31.7973 41.0569 32.0628 41.2619C32.3282 41.4669 32.6883 41.582 33.0636 41.582H40.1214V45.3673H4.53921C3.36183 45.3666 2.23028 45.7196 1.38369 46.3515C0.53711 46.9834 0.0418298 47.8447 0.0025303 48.7535C-0.0367692 49.6623 0.38299 50.5472 1.17309 51.2213C1.9632 51.8954 3.06174 52.3059 4.23655 52.366V56.4596C4.24235 60.3938 6.2686 64.1655 9.87076 66.9474C13.4729 69.7292 18.3568 71.2941 23.4511 71.2986H30.6607V74.5992C30.6619 75.372 31.0599 76.1129 31.7675 76.6594C32.4751 77.2058 33.4345 77.5132 34.4352 77.5141H35.3552V82.4877C35.3552 84.4623 36.3709 86.3561 38.179 87.7524C39.987 89.1487 42.4392 89.9331 44.9961 89.9331C47.553 89.9331 50.0052 89.1487 51.8132 87.7524C53.6212 86.3561 54.637 84.4623 54.637 82.4877V77.5141H55.557C56.5577 77.5132 57.5171 77.2058 58.2247 76.6594C58.9323 76.1129 59.3303 75.372 59.3314 74.5992V71.2989H66.5416C71.6358 71.2944 76.5197 69.7296 80.1219 66.9477C83.724 64.1659 85.7503 60.3941 85.7561 56.46V52.3663C86.9323 52.3077 88.0327 51.8978 88.8243 51.2235C89.616 50.5492 90.0368 49.6634 89.9975 48.7537C89.9582 47.844 89.462 46.9818 88.6139 46.3497C87.7658 45.7176 86.6325 45.3653 85.4539 45.3673ZM31.6485 37.4742H26.2187V35.0803H31.6482L31.6485 37.4742ZM74.365 24.1007H66.6053V22.2789H74.365V24.1007ZM42.9525 13.4977C42.9525 10.4977 44.4956 7.62049 47.2425 5.49913C49.9894 3.37777 53.715 2.18601 57.5997 2.18601C61.4843 2.18601 65.2099 3.37777 67.9568 5.49913C70.7037 7.62049 72.2469 10.4977 72.2469 13.4977V20.0927H68.7232V13.4977C68.7096 11.2262 67.5317 9.05132 65.4471 7.44881C63.3625 5.84631 60.5409 4.94665 57.5995 4.94665C54.6582 4.94665 51.8366 5.84631 49.752 7.44881C47.6674 9.05132 46.4894 11.2262 46.4759 13.4977V45.3673H42.9525V13.4977ZM34.4793 39.3959V33.041H40.1216V39.3959H34.4793ZM34.4357 75.3282C34.1854 75.3282 33.9454 75.2515 33.7684 75.1148C33.5915 74.9781 33.492 74.7928 33.492 74.5995V71.2989H39.1337V75.3282H34.4357ZM51.8066 82.488C51.8066 83.8829 51.0891 85.2206 49.812 86.2069C48.5349 87.1932 46.8027 87.7473 44.9966 87.7473C43.1904 87.7473 41.4583 87.1932 40.1811 86.2069C38.904 85.2206 38.1865 83.8829 38.1865 82.488V77.5144H51.8066V82.488ZM41.9645 75.3282V71.2989H48.0286V75.3282H41.9645ZM56.5013 74.5995C56.5013 74.7928 56.4019 74.9781 56.2249 75.1148C56.048 75.2515 55.808 75.3282 55.5577 75.3282H50.8594V71.2989H56.5013V74.5995ZM85.4539 50.192H68.995C68.6196 50.192 68.2595 50.3072 67.9941 50.5122C67.7287 50.7171 67.5795 50.9952 67.5795 51.2851C67.5795 51.575 67.7287 51.853 67.9941 52.058C68.2595 52.263 68.6196 52.3782 68.995 52.3782H82.9253V56.46C82.9203 59.8145 81.1926 63.0306 78.1211 65.4026C75.0497 67.7746 70.8853 69.1089 66.5416 69.1127H23.4515C19.1078 69.1089 14.9434 67.7746 11.872 65.4026C8.8005 63.0306 7.07278 59.8145 7.06785 56.46V52.3782H55.046C55.4214 52.3782 55.7814 52.263 56.0469 52.058C56.3123 51.853 56.4614 51.575 56.4614 51.2851C56.4614 50.9952 56.3123 50.7171 56.0469 50.5122C55.7814 50.3072 55.4214 50.192 55.046 50.192H4.53921C4.31321 50.194 4.08894 50.1614 3.87938 50.0961C3.66982 50.0307 3.47914 49.9339 3.31839 49.8112C3.15764 49.6885 3.03002 49.5424 2.94292 49.3813C2.85581 49.2202 2.81096 49.0474 2.81096 48.8729C2.81096 48.6984 2.85581 48.5256 2.94292 48.3645C3.03002 48.2034 3.15764 48.0573 3.31839 47.9346C3.47914 47.8119 3.66982 47.7151 3.87938 47.6497C4.08894 47.5844 4.31321 47.5518 4.53921 47.5538H85.4539C85.9034 47.5579 86.3327 47.6987 86.6488 47.9456C86.9648 48.1925 87.142 48.5257 87.142 48.8729C87.142 49.2201 86.9648 49.5533 86.6488 49.8002C86.3327 50.0471 85.9034 50.1879 85.4539 50.192Z" fill="#026977"/>
    </symbol>
    <symbol id="search" viewBox="0 0 30 30">
        <path d="M12.28 0.0400391C5.90235 0.0400391 0.720001 5.22238 0.720001 11.6C0.720001 17.9777 5.90235 23.16 12.28 23.16C14.8034 23.16 17.1356 22.3472 19.0375 20.9713L27.9838 29.8963L29.8963 27.9838L21.0563 19.1225C22.7934 17.0985 23.84 14.4714 23.84 11.6C23.84 5.22238 18.6577 0.0400391 12.28 0.0400391ZM12.28 1.40004C17.9219 1.40004 22.48 5.95816 22.48 11.6C22.48 17.2419 17.9219 21.8 12.28 21.8C6.63813 21.8 2.08 17.2419 2.08 11.6C2.08 5.95816 6.63813 1.40004 12.28 1.40004Z" fill="black" fill-opacity="0.5"/>
    </symbol>
    <symbol id="tg" viewBox="0 0 24 24">
        <path d="m12 24c6.629 0 12-5.371 12-12s-5.371-12-12-12-12 5.371-12 12 5.371 12 12 12zm-6.509-12.26 11.57-4.461c.537-.194 1.006.131.832.943l.001-.001-1.97 9.281c-.146.658-.537.818-1.084.508l-3-2.211-1.447 1.394c-.16.16-.295.295-.605.295l.213-3.053 5.56-5.023c.242-.213-.054-.333-.373-.121l-6.871 4.326-2.962-.924c-.643-.204-.657-.643.136-.953z"/>
    </symbol>
    <symbol id="vk" viewBox="0 0 25 25">
        <path d="M12.5 0.0799866C5.65174 0.0799866 0.0800171 5.65171 0.0800171 12.5C0.0800171 19.3483 5.65174 24.92 12.5 24.92C19.3488 24.92 24.92 19.3483 24.92 12.5C24.92 5.65171 19.3488 0.0799866 12.5 0.0799866ZM17.8854 14.9489C19.0934 16.0213 19.3445 16.4042 19.3856 16.4695C19.8861 17.2633 18.8304 17.36 18.8304 17.36H16.6056C16.6056 17.36 16.064 17.3659 15.6012 17.0592C14.8469 16.5651 14.0568 15.6071 13.5017 15.7735C13.0357 15.9128 13.04 16.5424 13.04 17.0808C13.04 17.2736 12.8742 17.36 12.5 17.36C12.1258 17.36 11.9703 17.36 11.8045 17.36C10.5857 17.36 9.26326 16.9496 7.94404 15.571C6.0778 13.6221 4.44106 9.69631 4.44106 9.69631C4.44106 9.69631 4.3444 9.49866 4.4497 9.37824C4.56904 9.24325 4.89358 9.26052 4.89358 9.26052L7.05088 9.25998C7.05088 9.25998 7.25392 9.29832 7.39972 9.40092C7.52014 9.48516 7.5871 9.64608 7.5871 9.64608C7.5871 9.64608 7.94944 10.8427 8.41114 11.6057C9.31294 13.0951 9.73252 13.1329 10.0387 12.9725C10.4858 12.7403 10.34 11.157 10.34 11.157C10.34 11.157 10.36 10.4771 10.1267 10.1742C9.9469 9.93985 9.60292 9.81511 9.4528 9.79566C9.3313 9.78001 9.53434 9.56724 9.793 9.44574C10.1386 9.29184 10.6089 9.25243 11.42 9.25998C12.0513 9.26592 12.2333 9.30373 12.4795 9.36042C13.2242 9.53215 13.04 9.9852 13.04 11.576C13.04 12.0858 12.9698 12.8024 13.3543 13.04C13.5201 13.1426 14.0882 13.2679 15.099 11.6263C15.5791 10.8476 15.9609 9.55591 15.9609 9.55591C15.9609 9.55591 16.0397 9.41389 16.1623 9.34369C16.2876 9.27186 16.2838 9.27348 16.4555 9.27348C16.6272 9.27348 18.3493 9.25998 18.7273 9.25998C19.1048 9.25998 19.459 9.25566 19.52 9.47707C19.6075 9.79513 19.2414 10.8848 18.3137 12.0674C16.7892 14.0082 16.6202 13.8268 17.8854 14.9489Z" fill="#026977"/>
    </symbol>
    <symbol id="ws" viewBox="0 0 38 38">
        <path d="M28.3307 9.66225C25.9715 7.3015 22.8357 6.00079 19.498 6C12.6074 6 7.00317 11.6018 7 18.4878C6.99921 20.8477 7.65946 23.1451 8.91029 25.1346L9.20796 25.6072L7.94525 30.2155L12.6739 28.9758L13.1307 29.2465C15.0481 30.3849 17.2473 30.9866 19.4893 30.9874H19.4941C26.38 30.9874 31.9842 25.3848 31.9866 18.498C31.9874 15.1612 30.6898 12.023 28.3307 9.66225Z" fill="#026977"/>
<path fill-rule="evenodd" clip-rule="evenodd" d="M15.8815 11.7625C15.6005 11.1371 15.3044 11.1245 15.036 11.1134C14.8167 11.1039 14.5666 11.1047 14.3164 11.1047C14.0662 11.1047 13.6593 11.1989 13.315 11.5749C12.9706 11.951 12 12.859 12 14.7067C12 16.5545 13.3458 18.3405 13.5335 18.5907C13.7211 18.8408 16.1317 22.754 19.9491 24.2598C23.1213 25.5106 23.7673 25.262 24.4561 25.1995C25.1448 25.137 26.6783 24.2915 26.991 23.4143C27.3037 22.5371 27.3037 21.7858 27.2103 21.6291C27.1161 21.4723 26.8659 21.3789 26.4907 21.1905C26.1154 21.0021 24.2685 20.094 23.9241 19.969C23.5797 19.8439 23.3295 19.7813 23.0786 20.1574C22.8284 20.5326 22.1088 21.3789 21.8895 21.6291C21.6702 21.88 21.4509 21.9117 21.0757 21.7233C20.7004 21.5349 19.4907 21.139 18.0555 19.8597C16.9392 18.8646 16.1855 17.6351 15.9662 17.2591C15.747 16.8838 15.9425 16.6804 16.1309 16.4927C16.2995 16.3241 16.5062 16.0542 16.6946 15.8349C16.8822 15.6156 16.9447 15.4588 17.0698 15.2087C17.1949 14.9577 17.1324 14.7384 17.0382 14.5508C16.9455 14.3624 16.2156 12.5051 15.8815 11.7625Z" fill="white"/>
    </symbol>
    <symbol></symbol>
    <symbol></symbol>  
</svg>
