<svg width="93" height="93" viewBox="0 0 93 93" fill="none" xmlns="http://www.w3.org/2000/svg">
<path d="M70.6209 57.0895C70.3292 57.0895 70.0389 57.0507 69.7575 56.9738L8.43656 40.4362C7.59326 40.2075 6.87507 39.6537 6.43946 38.8963C6.00385 38.1389 5.88638 37.2396 6.11282 36.3957L9.00336 25.6831C9.04622 25.5237 9.12007 25.3742 9.22072 25.2433C9.32136 25.1124 9.44681 25.0026 9.5899 24.9202C9.73299 24.8378 9.89091 24.7844 10.0546 24.7631C10.2184 24.7417 10.3847 24.7529 10.5441 24.7958L75.8012 42.3904C76.123 42.477 76.3972 42.6878 76.5636 42.9765C76.73 43.2652 76.7749 43.6082 76.6885 43.93L73.798 54.6451C73.6091 55.344 73.1957 55.9614 72.6213 56.4022C72.047 56.843 71.3436 57.0828 70.6196 57.0844L70.6209 57.0895ZM11.1021 27.5507L8.5459 37.0505C8.49202 37.2508 8.51969 37.4643 8.62286 37.6442C8.72602 37.8242 8.89628 37.9559 9.09636 38.0106L70.4123 54.5433C70.6125 54.5957 70.8254 54.5672 71.0048 54.464C71.1843 54.3607 71.3159 54.191 71.3712 53.9916L73.9337 44.4905L11.1021 27.5507Z" fill="#026977"/>
<path d="M78.4367 54.723C78.1481 54.723 77.8607 54.685 77.5821 54.6099L72.8517 53.3343C72.6923 53.2913 72.543 53.2173 72.4122 53.1166C72.2815 53.0159 72.1718 52.8905 72.0895 52.7474C72.0073 52.6043 71.954 52.4464 71.9327 52.2828C71.9115 52.1191 71.9226 51.9528 71.9656 51.7935L74.2605 43.2815C74.2968 43.147 74.3554 43.0195 74.4339 42.9044L83.6346 29.3227C83.7822 29.107 83.9933 28.9427 84.2386 28.8526C84.4839 28.7625 84.7512 28.7511 85.0032 28.82L88.35 29.7223C88.8191 29.849 89.2544 30.0778 89.6248 30.3923C89.9951 30.7069 90.2913 31.0994 90.4923 31.5418C90.6932 31.9842 90.7938 32.4656 90.7869 32.9515C90.7801 33.4373 90.6659 33.9157 90.4525 34.3522L81.4039 52.8806C81.1309 53.4343 80.7082 53.9004 80.1838 54.2261C79.6593 54.5518 79.054 54.7239 78.4367 54.723ZM74.7192 51.2355L78.2381 52.1831C78.4134 52.2295 78.5993 52.2139 78.7644 52.139C78.9295 52.0641 79.0637 51.9345 79.1442 51.7721L88.1929 33.2425C88.2438 33.1387 88.2709 33.0249 88.2725 32.9094C88.274 32.7938 88.2499 32.6793 88.2018 32.5742C88.1537 32.4691 88.0828 32.376 87.9943 32.3016C87.9059 32.2272 87.802 32.1734 87.6902 32.1441L85.2081 31.473L76.6332 44.1386L74.7192 51.2355Z" fill="#026977"/>
<path d="M75.4745 44.8662C75.3638 44.8663 75.2535 44.8519 75.1465 44.8235L6.58915 26.3328C5.74632 26.104 5.02886 25.5498 4.59452 24.7921C4.16018 24.0345 4.04451 23.1353 4.27295 22.2924L8.6163 6.15812C8.72894 5.74006 8.92287 5.3483 9.18699 5.00522C9.45112 4.66215 9.78026 4.37449 10.1556 4.15868C10.531 3.94287 10.9452 3.80316 11.3746 3.74751C11.8039 3.69187 12.2401 3.72139 12.658 3.83438L85.3689 23.4398C85.8756 23.5764 86.3422 23.8321 86.7301 24.1855C87.1179 24.5389 87.4157 24.9799 87.5986 25.4717C87.7816 25.9635 87.8444 26.4919 87.7818 27.0128C87.7193 27.5338 87.5332 28.0323 87.239 28.4668L76.5151 44.3019C76.4013 44.4742 76.2469 44.6159 76.0654 44.7143C75.8839 44.8127 75.681 44.8649 75.4745 44.8662ZM11.7984 6.23479C11.6267 6.23493 11.4598 6.29163 11.3235 6.39612C11.1872 6.50062 11.0891 6.64708 11.0444 6.81289L6.69347 22.9471C6.66648 23.0463 6.65935 23.1499 6.6725 23.2518C6.68565 23.3538 6.7188 23.4521 6.77007 23.5412C6.82134 23.6303 6.8897 23.7084 6.97123 23.771C7.05277 23.8336 7.14586 23.8795 7.24518 23.906L74.9366 42.1617L85.1578 27.0655C85.2275 26.9623 85.2716 26.844 85.2864 26.7203C85.3013 26.5967 85.2864 26.4713 85.243 26.3545C85.1996 26.2378 85.129 26.133 85.037 26.0491C84.945 25.9651 84.8344 25.9042 84.7142 25.8716L12.0033 6.26118C11.9364 6.24376 11.8675 6.23489 11.7984 6.23479Z" fill="#026977"/>
<path d="M45.663 57.3747C45.5522 57.3748 45.442 57.3605 45.335 57.332L30.2325 53.2588C29.9185 53.1741 29.6495 52.971 29.4822 52.6921C29.3149 52.4132 29.2622 52.0802 29.3352 51.7633L30.8433 45.2282C30.8814 45.0636 30.9522 44.9084 31.0516 44.7719C31.151 44.6353 31.2769 44.5202 31.4218 44.4334C31.5666 44.3466 31.7275 44.2899 31.8948 44.2667C32.0621 44.2434 32.2323 44.2541 32.3954 44.2982L47.5381 48.3826C47.8543 48.4678 48.1248 48.6731 48.292 48.9548C48.4591 49.2365 48.5096 49.5723 48.4329 49.8907L46.8845 56.4171C46.8192 56.6923 46.663 56.9374 46.441 57.1128C46.2191 57.2881 45.9446 57.3835 45.6617 57.3835L45.663 57.3747ZM32.0573 51.15L44.7405 54.5671L45.7082 50.4877L33.0024 47.0605L32.0573 51.15Z" fill="#026977"/>
<path d="M34.0053 75.2797H15.4304C15.0971 75.2797 14.7774 75.1473 14.5417 74.9116C14.3061 74.6759 14.1737 74.3563 14.1737 74.023V68.9809C14.1737 68.6475 14.3061 68.3279 14.5417 68.0922C14.7774 67.8565 15.0971 67.7241 15.4304 67.7241H34.0053C34.0598 67.7238 34.1121 67.7019 34.1507 67.6634C34.1892 67.6248 34.2111 67.5726 34.2114 67.518V53.3694C34.2113 53.1765 34.2557 52.9861 34.341 52.8131C34.4263 52.64 34.5504 52.489 34.7035 52.3716C34.8566 52.2542 35.0347 52.1736 35.224 52.1361C35.4132 52.0986 35.6086 52.1052 35.7949 52.1554L40.8345 53.5152C41.101 53.5873 41.3364 53.7451 41.5043 53.9643C41.6721 54.1835 41.7631 54.4519 41.7632 54.728V67.518C41.7619 69.5755 40.9442 71.5484 39.4897 73.0036C38.0352 74.4588 36.0628 75.2774 34.0053 75.2797ZM16.6872 72.7662H34.0053C35.3957 72.7645 36.7287 72.2115 37.7118 71.2283C38.695 70.2451 39.2481 68.9122 39.2497 67.5218V55.6907L36.7249 55.0095V67.518C36.7239 68.239 36.4371 68.9301 35.9272 69.44C35.4174 69.9498 34.7263 70.2366 34.0053 70.2376H16.6872V72.7662Z" fill="#026977"/>
<path d="M7.80192 86.2035C7.46861 86.2035 7.14894 86.0711 6.91326 85.8354C6.67757 85.5997 6.54516 85.28 6.54516 84.9467V58.0521C6.54516 57.7188 6.67757 57.3992 6.91326 57.1635C7.14894 56.9278 7.46861 56.7954 7.80192 56.7954C10.1577 56.7984 12.4162 57.7356 14.0819 59.4016C15.7476 61.0675 16.6845 63.3261 16.6872 65.6819V77.317C16.6845 79.6728 15.7476 81.9314 14.0819 83.5973C12.4162 85.2632 10.1577 86.2005 7.80192 86.2035ZM9.05867 59.4346V83.5643C10.5008 83.2722 11.7976 82.4908 12.7297 81.3524C13.6619 80.2139 14.1719 78.7883 14.1737 77.317V65.6832C14.1718 64.2117 13.6616 62.7861 12.7296 61.6475C11.7975 60.5088 10.5008 59.7271 9.05867 59.4346Z" fill="#026977"/>
</svg>
