<svg width="85" height="85" viewBox="0 0 85 85" fill="none" xmlns="http://www.w3.org/2000/svg">
<path d="M51.7969 70.3906H61.0938C62.1495 70.3875 63.1611 69.9667 63.9076 69.2201C64.6542 68.4736 65.075 67.462 65.0781 66.4062V55.5953C66.2156 55.3016 67.2237 54.6391 67.9446 53.7116C68.6656 52.784 69.0587 51.6436 69.0625 50.4688V47.7461C72.6899 47.4116 76.0618 45.7354 78.5183 43.0456C80.9748 40.3557 82.339 36.8459 82.3438 33.2031V22.5781C82.3406 21.5224 81.9198 20.5108 81.1733 19.7642C80.4267 19.0177 79.4151 18.5969 78.3594 18.5938H77.0312V7.96875C77.0312 6.55979 76.4715 5.20853 75.4753 4.21225C74.479 3.21596 73.1277 2.65625 71.7188 2.65625C70.3098 2.65625 68.9585 3.21596 67.9622 4.21225C66.966 5.20853 66.4062 6.55979 66.4062 7.96875V18.5938H61.0938V7.96875C61.0938 6.55979 60.534 5.20853 59.5378 4.21225C58.5415 3.21596 57.1902 2.65625 55.7812 2.65625C54.3723 2.65625 53.021 3.21596 52.0247 4.21225C51.0285 5.20853 50.4688 6.55979 50.4688 7.96875V18.5938H49.1406C48.0849 18.5969 47.0733 19.0177 46.3267 19.7642C45.5802 20.5108 45.1594 21.5224 45.1562 22.5781V33.2031C45.161 36.8459 46.5252 40.3557 48.9817 43.0456C51.4382 45.7354 54.8101 47.4116 58.4375 47.7461V50.4688C58.4413 51.6436 58.8344 52.784 59.5554 53.7116C60.2763 54.6391 61.2844 55.3016 62.4219 55.5953V66.4062C62.4219 66.7585 62.2819 67.0963 62.0329 67.3454C61.7838 67.5945 61.446 67.7344 61.0938 67.7344H51.7969C51.1903 67.7346 50.5919 67.8734 50.0472 68.1404C49.5026 68.4074 49.0262 68.7953 48.6546 69.2747C48.2829 69.754 48.0258 70.312 47.9028 70.9059C47.7799 71.4999 47.7944 72.1141 47.9453 72.7016C48.1805 73.5766 48.702 74.3477 49.4265 74.8917C50.1511 75.4357 51.0371 75.7214 51.943 75.7031H78.3594C78.7116 75.7031 79.0494 75.843 79.2985 76.0921C79.5476 76.3412 79.6875 76.679 79.6875 77.0312V78.3594C79.6875 78.7116 79.5476 79.0494 79.2985 79.2985C79.0494 79.5476 78.7116 79.6875 78.3594 79.6875H30.5469C28.0821 79.6847 25.719 78.7043 23.9761 76.9614C22.2332 75.2185 21.2528 72.8554 21.25 70.3906V45.1562H33.2031C34.2589 45.1531 35.2705 44.7323 36.017 43.9858C36.7636 43.2392 37.1843 42.2276 37.1875 41.1719V6.64062C37.1843 5.58487 36.7636 4.57326 36.017 3.82673C35.2705 3.0802 34.2589 2.6594 33.2031 2.65625H6.64062C5.58487 2.6594 4.57326 3.0802 3.82673 3.82673C3.0802 4.57326 2.6594 5.58487 2.65625 6.64062V41.1719C2.6594 42.2276 3.0802 43.2392 3.82673 43.9858C4.57326 44.7323 5.58487 45.1531 6.64062 45.1562H18.5938V70.3906C18.5987 73.5593 19.8596 76.5967 22.1002 78.8373C24.3408 81.0779 27.3782 82.3388 30.5469 82.3438H78.3594C79.4151 82.3406 80.4267 81.9198 81.1733 81.1733C81.9198 80.4267 82.3406 79.4151 82.3438 78.3594V77.0312C82.3406 75.9755 81.9198 74.9639 81.1733 74.2174C80.4267 73.4708 79.4151 73.05 78.3594 73.0469H51.943C51.6285 73.0574 51.319 72.9662 51.0606 72.7867C50.8021 72.6073 50.6085 72.3491 50.5086 72.0508C50.4478 71.8246 50.4503 71.586 50.5158 71.3612C50.5814 71.1363 50.7076 70.9338 50.8805 70.7758C50.9981 70.6515 51.1403 70.553 51.2981 70.4867C51.4559 70.4204 51.6258 70.3877 51.7969 70.3906ZM69.0625 7.96875C69.0625 7.26427 69.3424 6.58864 69.8405 6.0905C70.3386 5.59235 71.0143 5.3125 71.7188 5.3125C72.4232 5.3125 73.0989 5.59235 73.597 6.0905C74.0951 6.58864 74.375 7.26427 74.375 7.96875V22.5781H69.0625V7.96875ZM53.125 7.96875C53.125 7.26427 53.4049 6.58864 53.903 6.0905C54.4011 5.59235 55.0768 5.3125 55.7812 5.3125C56.4857 5.3125 57.1614 5.59235 57.6595 6.0905C58.1576 6.58864 58.4375 7.26427 58.4375 7.96875V22.5781H53.125V7.96875ZM58.4508 45.0766C55.5274 44.753 52.8259 43.363 50.8631 41.1724C48.9004 38.9818 47.8143 36.1444 47.8125 33.2031V22.5781C47.8125 22.2259 47.9524 21.8881 48.2015 21.639C48.4506 21.3899 48.7884 21.25 49.1406 21.25H50.4688V23.9062C50.4688 24.2585 50.6087 24.5963 50.8577 24.8454C51.1068 25.0944 51.4446 25.2344 51.7969 25.2344H59.7656C60.1179 25.2344 60.4557 25.0944 60.7048 24.8454C60.9538 24.5963 61.0938 24.2585 61.0938 23.9062V21.25H66.4062V23.9062C66.4062 24.2585 66.5462 24.5963 66.7952 24.8454C67.0443 25.0944 67.3821 25.2344 67.7344 25.2344H75.7031C76.0554 25.2344 76.3932 25.0944 76.6423 24.8454C76.8913 24.5963 77.0312 24.2585 77.0312 23.9062V21.25H78.3594C78.7116 21.25 79.0494 21.3899 79.2985 21.639C79.5476 21.8881 79.6875 22.2259 79.6875 22.5781V33.2031C79.6857 36.1444 78.5996 38.9818 76.6369 41.1724C74.6741 43.363 71.9726 44.753 69.0492 45.0766C69.0492 43.6711 68.4909 42.3232 67.4971 41.3294C66.5033 40.3357 65.1554 39.7773 63.75 39.7773C62.3446 39.7773 60.9967 40.3357 60.0029 41.3294C59.0091 42.3232 58.4508 43.6711 58.4508 45.0766ZM61.0938 50.4688V45.1562C61.0938 44.4518 61.3736 43.7761 61.8717 43.278C62.3699 42.7799 63.0455 42.5 63.75 42.5C64.4545 42.5 65.1301 42.7799 65.6283 43.278C66.1264 43.7761 66.4062 44.4518 66.4062 45.1562V50.4688C66.4062 51.1732 66.1264 51.8489 65.6283 52.347C65.1301 52.8451 64.4545 53.125 63.75 53.125C63.0455 53.125 62.3699 52.8451 61.8717 52.347C61.3736 51.8489 61.0938 51.1732 61.0938 50.4688ZM6.64062 42.5C6.28838 42.5 5.95057 42.3601 5.7015 42.111C5.45243 41.8619 5.3125 41.5241 5.3125 41.1719V6.64062C5.3125 6.28838 5.45243 5.95057 5.7015 5.7015C5.95057 5.45243 6.28838 5.3125 6.64062 5.3125H33.2031C33.5554 5.3125 33.8932 5.45243 34.1423 5.7015C34.3913 5.95057 34.5312 6.28838 34.5312 6.64062V41.1719C34.5312 41.5241 34.3913 41.8619 34.1423 42.111C33.8932 42.3601 33.5554 42.5 33.2031 42.5H6.64062Z" fill="#026977"/>
<path d="M65.0781 46.4844H62.4219V49.1406H65.0781V46.4844Z" fill="#026977"/>
<path d="M29.0195 20.5461C28.8999 20.3547 28.7335 20.1969 28.536 20.0877C28.3384 19.9785 28.1163 19.9214 27.8906 19.9219H21.25V10.625C21.2491 10.3266 21.1476 10.0372 20.9621 9.80349C20.7766 9.56977 20.5178 9.40535 20.2274 9.33671C19.9378 9.26475 19.6324 9.29402 19.3618 9.41965C19.0912 9.54529 18.8717 9.75973 18.7399 10.0273L10.7711 25.9648C10.6692 26.167 10.6207 26.3919 10.6302 26.6181C10.6397 26.8443 10.7068 27.0643 10.8252 27.2573C10.9437 27.4502 11.1095 27.6097 11.3069 27.7205C11.5043 27.8314 11.7267 27.8899 11.9531 27.8906H18.5938V37.1875C18.5947 37.4859 18.6961 37.7753 18.8817 38.009C19.0672 38.2427 19.326 38.4071 19.6164 38.4758C19.7161 38.5021 19.8188 38.5155 19.9219 38.5156C20.1671 38.5149 20.4074 38.4462 20.616 38.3173C20.8247 38.1884 20.9935 38.0042 21.1039 37.7852L29.0727 21.8477C29.1755 21.6442 29.2246 21.4178 29.2153 21.19C29.206 20.9622 29.1386 20.7405 29.0195 20.5461ZM21.25 31.5562V26.5625C21.25 26.2103 21.1101 25.8724 20.861 25.6234C20.6119 25.3743 20.2741 25.2344 19.9219 25.2344H14.1047L18.5938 16.2562V21.25C18.5938 21.6022 18.7337 21.9401 18.9828 22.1891C19.2318 22.4382 19.5696 22.5781 19.9219 22.5781H25.7391L21.25 31.5562Z" fill="#026977"/>
</svg>
