<svg width="30" height="30" viewBox="0 0 30 30" fill="none" xmlns="http://www.w3.org/2000/svg">
<path d="M12.28 0.0400391C5.90235 0.0400391 0.720001 5.22238 0.720001 11.6C0.720001 17.9777 5.90235 23.16 12.28 23.16C14.8034 23.16 17.1356 22.3472 19.0375 20.9713L27.9838 29.8963L29.8963 27.9838L21.0563 19.1225C22.7934 17.0985 23.84 14.4714 23.84 11.6C23.84 5.22238 18.6577 0.0400391 12.28 0.0400391ZM12.28 1.40004C17.9219 1.40004 22.48 5.95816 22.48 11.6C22.48 17.2419 17.9219 21.8 12.28 21.8C6.63813 21.8 2.08 17.2419 2.08 11.6C2.08 5.95816 6.63813 1.40004 12.28 1.40004Z" fill="black" fill-opacity="0.5"/>
</svg>
