<svg width="90" height="90" viewBox="0 0 90 90" fill="none" xmlns="http://www.w3.org/2000/svg">
<path d="M64.1434 50.192H59.7464C59.371 50.192 59.011 50.3072 58.7456 50.5121C58.4801 50.7171 58.331 50.9952 58.331 51.2851C58.331 51.575 58.4801 51.853 58.7456 52.058C59.011 52.263 59.371 52.3782 59.7464 52.3782H64.1434C64.5188 52.3782 64.8788 52.263 65.1443 52.058C65.4097 51.853 65.5588 51.575 65.5588 51.2851C65.5588 50.9952 65.4097 50.7171 65.1443 50.5121C64.8788 50.3072 64.5188 50.192 64.1434 50.192Z" fill="#026977"/>
<path d="M85.4539 45.3673H49.3067V13.4979C49.3184 11.8053 50.1973 10.1851 51.7512 8.99137C53.3052 7.79769 55.4078 7.12761 57.5995 7.12761C59.7913 7.12761 61.8939 7.79769 63.4479 8.99137C65.0018 10.1851 65.8807 11.8053 65.8924 13.4979V20.0929H65.1898C64.8145 20.0929 64.4544 20.2081 64.189 20.4131C63.9235 20.6181 63.7744 20.8961 63.7744 21.186V25.194C63.7744 25.4839 63.9235 25.7619 64.189 25.9669C64.4544 26.1719 64.8145 26.2871 65.1898 26.2871H75.7805C76.1559 26.2871 76.5159 26.1719 76.7813 25.9669C77.0468 25.7619 77.1959 25.4839 77.1959 25.194V21.186C77.1959 20.8961 77.0468 20.6181 76.7813 20.4131C76.5159 20.2081 76.1559 20.0929 75.7805 20.0929H75.0777V13.4979C75.0777 11.7253 74.6256 9.97012 73.7473 8.33248C72.8689 6.69484 71.5815 5.20684 69.9585 3.95344C68.3355 2.70005 66.4088 1.7058 64.2882 1.02747C62.1677 0.349133 59.8949 0 57.5997 0C55.3044 0 53.0316 0.349133 50.9111 1.02747C48.7906 1.7058 46.8638 2.70005 45.2408 3.95344C43.6178 5.20684 42.3304 6.69484 41.4521 8.33248C40.5737 9.97012 40.1216 11.7253 40.1216 13.4979V30.8548H33.0639C32.6885 30.8548 32.3285 30.9699 32.063 31.1749C31.7976 31.3799 31.6485 31.658 31.6485 31.9479V32.8941H26.2187V29.4941C26.2187 29.2042 26.0696 28.9261 25.8041 28.7211C25.5387 28.5161 25.1787 28.401 24.8033 28.401C24.4279 28.401 24.0679 28.5161 23.8024 28.7211C23.537 28.9261 23.3878 29.2042 23.3878 29.4941V42.9426C23.3878 43.2325 23.537 43.5105 23.8024 43.7155C24.0679 43.9205 24.4279 44.0357 24.8033 44.0357C25.1787 44.0357 25.5387 43.9205 25.8041 43.7155C26.0696 43.5105 26.2187 43.2325 26.2187 42.9426V39.6604H31.6482V40.489C31.6482 40.7789 31.7973 41.0569 32.0628 41.2619C32.3282 41.4669 32.6883 41.582 33.0636 41.582H40.1214V45.3673H4.53921C3.36183 45.3666 2.23028 45.7196 1.38369 46.3515C0.53711 46.9834 0.0418298 47.8447 0.0025303 48.7535C-0.0367692 49.6623 0.38299 50.5472 1.17309 51.2213C1.9632 51.8954 3.06174 52.3059 4.23655 52.366V56.4596C4.24235 60.3938 6.2686 64.1655 9.87076 66.9474C13.4729 69.7292 18.3568 71.2941 23.4511 71.2986H30.6607V74.5992C30.6619 75.372 31.0599 76.1129 31.7675 76.6594C32.4751 77.2058 33.4345 77.5132 34.4352 77.5141H35.3552V82.4877C35.3552 84.4623 36.3709 86.3561 38.179 87.7524C39.987 89.1487 42.4392 89.9331 44.9961 89.9331C47.553 89.9331 50.0052 89.1487 51.8132 87.7524C53.6212 86.3561 54.637 84.4623 54.637 82.4877V77.5141H55.557C56.5577 77.5132 57.5171 77.2058 58.2247 76.6594C58.9323 76.1129 59.3303 75.372 59.3314 74.5992V71.2989H66.5416C71.6358 71.2944 76.5197 69.7296 80.1219 66.9477C83.724 64.1659 85.7503 60.3941 85.7561 56.46V52.3663C86.9323 52.3077 88.0327 51.8978 88.8243 51.2235C89.616 50.5492 90.0368 49.6634 89.9975 48.7537C89.9582 47.844 89.462 46.9818 88.6139 46.3497C87.7658 45.7176 86.6325 45.3653 85.4539 45.3673ZM31.6485 37.4742H26.2187V35.0803H31.6482L31.6485 37.4742ZM74.365 24.1007H66.6053V22.2789H74.365V24.1007ZM42.9525 13.4977C42.9525 10.4977 44.4956 7.62049 47.2425 5.49913C49.9894 3.37777 53.715 2.18601 57.5997 2.18601C61.4843 2.18601 65.2099 3.37777 67.9568 5.49913C70.7037 7.62049 72.2469 10.4977 72.2469 13.4977V20.0927H68.7232V13.4977C68.7096 11.2262 67.5317 9.05132 65.4471 7.44881C63.3625 5.84631 60.5409 4.94665 57.5995 4.94665C54.6582 4.94665 51.8366 5.84631 49.752 7.44881C47.6674 9.05132 46.4894 11.2262 46.4759 13.4977V45.3673H42.9525V13.4977ZM34.4793 39.3959V33.041H40.1216V39.3959H34.4793ZM34.4357 75.3282C34.1854 75.3282 33.9454 75.2515 33.7684 75.1148C33.5915 74.9781 33.492 74.7928 33.492 74.5995V71.2989H39.1337V75.3282H34.4357ZM51.8066 82.488C51.8066 83.8829 51.0891 85.2206 49.812 86.2069C48.5349 87.1932 46.8027 87.7473 44.9966 87.7473C43.1904 87.7473 41.4583 87.1932 40.1811 86.2069C38.904 85.2206 38.1865 83.8829 38.1865 82.488V77.5144H51.8066V82.488ZM41.9645 75.3282V71.2989H48.0286V75.3282H41.9645ZM56.5013 74.5995C56.5013 74.7928 56.4019 74.9781 56.2249 75.1148C56.048 75.2515 55.808 75.3282 55.5577 75.3282H50.8594V71.2989H56.5013V74.5995ZM85.4539 50.192H68.995C68.6196 50.192 68.2595 50.3072 67.9941 50.5122C67.7287 50.7171 67.5795 50.9952 67.5795 51.2851C67.5795 51.575 67.7287 51.853 67.9941 52.058C68.2595 52.263 68.6196 52.3782 68.995 52.3782H82.9253V56.46C82.9203 59.8145 81.1926 63.0306 78.1211 65.4026C75.0497 67.7746 70.8853 69.1089 66.5416 69.1127H23.4515C19.1078 69.1089 14.9434 67.7746 11.872 65.4026C8.8005 63.0306 7.07278 59.8145 7.06785 56.46V52.3782H55.046C55.4214 52.3782 55.7814 52.263 56.0469 52.058C56.3123 51.853 56.4614 51.575 56.4614 51.2851C56.4614 50.9952 56.3123 50.7171 56.0469 50.5122C55.7814 50.3072 55.4214 50.192 55.046 50.192H4.53921C4.31321 50.194 4.08894 50.1614 3.87938 50.0961C3.66982 50.0307 3.47914 49.9339 3.31839 49.8112C3.15764 49.6885 3.03002 49.5424 2.94292 49.3813C2.85581 49.2202 2.81096 49.0474 2.81096 48.8729C2.81096 48.6984 2.85581 48.5256 2.94292 48.3645C3.03002 48.2034 3.15764 48.0573 3.31839 47.9346C3.47914 47.8119 3.66982 47.7151 3.87938 47.6497C4.08894 47.5844 4.31321 47.5518 4.53921 47.5538H85.4539C85.9034 47.5579 86.3327 47.6987 86.6488 47.9456C86.9648 48.1925 87.142 48.5257 87.142 48.8729C87.142 49.2201 86.9648 49.5533 86.6488 49.8002C86.3327 50.0471 85.9034 50.1879 85.4539 50.192Z" fill="#026977"/>
</svg>
