<svg width="20" height="20" viewBox="0 0 20 20" fill="none" xmlns="http://www.w3.org/2000/svg">
<g clip-path="url(#clip0)">
<path d="M10 0C7.09223 0 4.72656 2.36566 4.72656 5.27344C4.72656 8.18121 7.09223 10.5469 10 10.5469C12.9078 10.5469 15.2734 8.18121 15.2734 5.27344C15.2734 2.36566 12.9078 0 10 0Z" fill="#026977"/>
<path d="M16.5612 14.1535C15.1174 12.6876 13.2035 11.8802 11.1719 11.8802H8.82812C6.79656 11.8802 4.88258 12.6876 3.43883 14.1535C2.00215 15.6122 1.21094 17.5378 1.21094 19.5756C1.21094 19.8992 1.47328 20.1615 1.79688 20.1615H18.2031C18.5267 20.1615 18.7891 19.8992 18.7891 19.5756C18.7891 17.5378 17.9979 15.6122 16.5612 14.1535Z" fill="#026977"/>
</g>
<defs>
<clipPath id="clip0">
<rect width="20" height="20" fill="white"/>
</clipPath>
</defs>
</svg>
