<svg width="38" height="38" viewBox="0 0 38 38" fill="none" xmlns="http://www.w3.org/2000/svg">
<path d="M28.3307 9.66225C25.9715 7.3015 22.8357 6.00079 19.498 6C12.6074 6 7.00317 11.6018 7 18.4878C6.99921 20.8477 7.65946 23.1451 8.91029 25.1346L9.20796 25.6072L7.94525 30.2155L12.6739 28.9758L13.1307 29.2465C15.0481 30.3849 17.2473 30.9866 19.4893 30.9874H19.4941C26.38 30.9874 31.9842 25.3848 31.9866 18.498C31.9874 15.1612 30.6898 12.023 28.3307 9.66225Z" fill="#026977"/>
<path fill-rule="evenodd" clip-rule="evenodd" d="M15.8815 11.7625C15.6005 11.1371 15.3044 11.1245 15.036 11.1134C14.8167 11.1039 14.5666 11.1047 14.3164 11.1047C14.0662 11.1047 13.6593 11.1989 13.315 11.5749C12.9706 11.951 12 12.859 12 14.7067C12 16.5545 13.3458 18.3405 13.5335 18.5907C13.7211 18.8408 16.1317 22.754 19.9491 24.2598C23.1213 25.5106 23.7673 25.262 24.4561 25.1995C25.1448 25.137 26.6783 24.2915 26.991 23.4143C27.3037 22.5371 27.3037 21.7858 27.2103 21.6291C27.1161 21.4723 26.8659 21.3789 26.4907 21.1905C26.1154 21.0021 24.2685 20.094 23.9241 19.969C23.5797 19.8439 23.3295 19.7813 23.0786 20.1574C22.8284 20.5326 22.1088 21.3789 21.8895 21.6291C21.6702 21.88 21.4509 21.9117 21.0757 21.7233C20.7004 21.5349 19.4907 21.139 18.0555 19.8597C16.9392 18.8646 16.1855 17.6351 15.9662 17.2591C15.747 16.8838 15.9425 16.6804 16.1309 16.4927C16.2995 16.3241 16.5062 16.0542 16.6946 15.8349C16.8822 15.6156 16.9447 15.4588 17.0698 15.2087C17.1949 14.9577 17.1324 14.7384 17.0382 14.5508C16.9455 14.3624 16.2156 12.5051 15.8815 11.7625Z" fill="white"/>
</svg>
